<svg width="305" height="172" viewBox="0 0 305 172" fill="none" xmlns="http://www.w3.org/2000/svg">
<path d="M35 58.1V24.5L43 24.4V58.4C43 59.6667 42.7 60.7 42.1 61.5C41.5667 62.2333 40.7 62.9667 39.5 63.7C38.1667 64.5667 36.2667 65.3667 33.8 66.1C31.3333 66.9 28.5 67.3 25.3 67.3C20.5 67.3 16.2667 66.4667 12.6 64.8C8.93333 63.1333 6.06667 60.5333 4 57C1.93333 53.4 0.9 48.7667 0.9 43.1C0.9 37.3 1.9 32.6 3.9 29C5.96667 25.4 8.73333 22.7667 12.2 21.1C15.6667 19.3667 19.4667 18.5 23.6 18.5C26.2 18.5 28.6667 18.8667 31 19.6C33.3333 20.3333 35.1667 21.2333 36.5 22.3V29.7C35.2333 28.4333 33.5667 27.3667 31.5 26.5C29.5 25.5667 27.1333 25.1 24.4 25.1C21.6667 25.1 19.1333 25.7 16.8 26.9C14.4667 28.0333 12.6 29.9333 11.2 32.6C9.8 35.2667 9.1 38.8333 9.1 43.3C9.1 49.3667 10.5667 53.8 13.5 56.6C16.4333 59.3333 20.3333 60.7 25.2 60.7C27.5333 60.7 29.4333 60.4667 30.9 60C32.4333 59.4667 33.8 58.8333 35 58.1ZM43 26.4L35 26.5V1.2C35.3333 1.06666 35.8333 0.933331 36.5 0.799999C37.2333 0.599998 37.9667 0.499997 38.7 0.499997C40.1667 0.499997 41.2333 0.799997 41.9 1.4C42.6333 1.93333 43 2.83333 43 4.1V26.4ZM80.6875 58.1V24.5L88.6875 24.4V58.4C88.6875 59.6667 88.3875 60.7 87.7875 61.5C87.2542 62.2333 86.3875 62.9667 85.1875 63.7C83.8542 64.5667 81.9542 65.3667 79.4875 66.1C77.0208 66.9 74.1875 67.3 70.9875 67.3C66.1875 67.3 61.9542 66.4667 58.2875 64.8C54.6208 63.1333 51.7542 60.5333 49.6875 57C47.6208 53.4 46.5875 48.7667 46.5875 43.1C46.5875 37.3 47.5875 32.6 49.5875 29C51.6542 25.4 54.4208 22.7667 57.8875 21.1C61.3542 19.3667 65.1542 18.5 69.2875 18.5C71.8875 18.5 74.3542 18.8667 76.6875 19.6C79.0208 20.3333 80.8542 21.2333 82.1875 22.3V29.7C80.9208 28.4333 79.2542 27.3667 77.1875 26.5C75.1875 25.5667 72.8208 25.1 70.0875 25.1C67.3542 25.1 64.8208 25.7 62.4875 26.9C60.1542 28.0333 58.2875 29.9333 56.8875 32.6C55.4875 35.2667 54.7875 38.8333 54.7875 43.3C54.7875 49.3667 56.2542 53.8 59.1875 56.6C62.1208 59.3333 66.0208 60.7 70.8875 60.7C73.2208 60.7 75.1208 60.4667 76.5875 60C78.1208 59.4667 79.4875 58.8333 80.6875 58.1ZM88.6875 26.4L80.6875 26.5V1.2C81.0208 1.06666 81.5208 0.933331 82.1875 0.799999C82.9208 0.599998 83.6542 0.499997 84.3875 0.499997C85.8542 0.499997 86.9208 0.799997 87.5875 1.4C88.3208 1.93333 88.6875 2.83333 88.6875 4.1V26.4ZM134.975 46.1H126.975V36.9C126.975 32.9 125.842 29.9333 123.575 28C121.375 26.0667 118.508 25.1 114.975 25.1C112.375 25.1 109.942 25.6 107.675 26.6C105.475 27.6 103.608 28.8 102.075 30.2L100.575 23.7C102.175 22.5667 104.275 21.4333 106.875 20.3C109.542 19.1 112.608 18.5 116.075 18.5C121.608 18.5 126.142 20 129.675 23C133.208 26 134.975 30.5667 134.975 36.7V46.1ZM95.075 39.6H103.075V65.8C102.742 65.9333 102.242 66.0667 101.575 66.2C100.908 66.4 100.175 66.5 99.375 66.5C97.975 66.5 96.9083 66.2333 96.175 65.7C95.4417 65.1 95.075 64.1667 95.075 62.9V39.6ZM126.975 39.7L134.975 39.8V65.8C134.642 65.9333 134.108 66.0667 133.375 66.2C132.708 66.4 132.008 66.5 131.275 66.5C129.808 66.5 128.708 66.2333 127.975 65.7C127.308 65.1 126.975 64.1667 126.975 62.9V39.7ZM103.075 43.5H95.075V1.2C95.4083 1.06666 95.9083 0.933331 96.575 0.799999C97.3083 0.599998 98.075 0.499997 98.875 0.499997C100.275 0.499997 101.308 0.799997 101.975 1.4C102.708 1.93333 103.075 2.83333 103.075 4.1V43.5ZM143.853 48L143.453 41.7L173.653 37.6C173.386 33.9333 172.12 30.9333 169.853 28.6C167.586 26.2 164.453 25 160.453 25C156.32 25 152.886 26.5 150.153 29.5C147.486 32.4333 146.153 36.6667 146.153 42.2V44.4C146.62 49.7333 148.353 53.8 151.353 56.6C154.42 59.3333 158.586 60.7 163.853 60.7C166.653 60.7 169.186 60.2333 171.453 59.3C173.72 58.3667 175.52 57.3667 176.853 56.3C177.586 56.7667 178.153 57.3333 178.553 58C179.02 58.6 179.253 59.3 179.253 60.1C179.253 61.3667 178.52 62.5667 177.053 63.7C175.653 64.7667 173.753 65.6333 171.353 66.3C169.02 66.9667 166.386 67.3 163.453 67.3C158.32 67.3 153.853 66.3667 150.053 64.5C146.32 62.6333 143.42 59.8667 141.353 56.2C139.353 52.4667 138.353 47.9333 138.353 42.6C138.353 38.8 138.886 35.4333 139.953 32.5C141.086 29.5 142.62 26.9667 144.553 24.9C146.553 22.8333 148.92 21.2667 151.653 20.2C154.386 19.0667 157.353 18.5 160.553 18.5C164.62 18.5 168.186 19.3667 171.253 21.1C174.386 22.8333 176.82 25.2667 178.553 28.4C180.353 31.4667 181.253 35 181.253 39C181.253 40.4667 180.92 41.5333 180.253 42.2C179.586 42.8 178.653 43.1667 177.453 43.3L143.853 48ZM184.609 39.6L192.609 40.8V65.8C192.275 65.9333 191.775 66.0667 191.109 66.2C190.442 66.4 189.709 66.5 188.909 66.5C187.509 66.5 186.442 66.2333 185.709 65.7C184.975 65.1 184.609 64.1667 184.609 62.9V39.6ZM192.609 44.6L184.609 43.5V1.2C184.942 1.06666 185.442 0.933331 186.109 0.799999C186.842 0.599998 187.575 0.499997 188.309 0.499997C189.775 0.499997 190.842 0.799997 191.509 1.4C192.242 1.93333 192.609 2.83333 192.609 4.1V44.6ZM242.318 42.9C242.318 47.8333 241.385 52.1333 239.518 55.8C237.651 59.4667 235.018 62.3 231.618 64.3C228.218 66.3 224.218 67.3 219.618 67.3C215.018 67.3 210.985 66.3 207.518 64.3C204.118 62.3 201.485 59.4667 199.618 55.8C197.751 52.1333 196.818 47.8333 196.818 42.9C196.818 37.9 197.751 33.6 199.618 30C201.551 26.3333 204.218 23.5 207.618 21.5C211.085 19.5 215.085 18.5 219.618 18.5C224.151 18.5 228.118 19.5 231.518 21.5C234.918 23.5 237.551 26.3333 239.418 30C241.351 33.6 242.318 37.9 242.318 42.9ZM219.618 25.1C215.151 25.1 211.585 26.7 208.918 29.9C206.318 33.0333 205.018 37.3667 205.018 42.9C205.018 48.5 206.285 52.8667 208.818 56C211.418 59.1333 215.018 60.7 219.618 60.7C224.151 60.7 227.685 59.1333 230.218 56C232.818 52.8 234.118 48.4333 234.118 42.9C234.118 37.3667 232.818 33.0333 230.218 29.9C227.685 26.7 224.151 25.1 219.618 25.1ZM265.391 67.3C262.525 67.3 259.825 66.8667 257.291 66C254.825 65.2 253.025 64.3 251.891 63.3V55.9C253.225 57.1667 254.891 58.3 256.891 59.3C258.958 60.2333 261.425 60.7 264.291 60.7C268.958 60.7 272.691 59.3 275.491 56.5C278.358 53.6333 279.791 49.0667 279.791 42.8C279.791 38.4 279.058 34.9333 277.591 32.4C276.191 29.8 274.291 27.9333 271.891 26.8C269.558 25.6667 267.025 25.1 264.291 25.1C261.891 25.1 259.858 25.4 258.191 26C256.525 26.6 255.025 27.2667 253.691 28V61.2H245.691V28.2C245.691 26.8667 245.925 25.8 246.391 25C246.858 24.2 247.825 23.3667 249.291 22.5C251.091 21.5 253.225 20.6 255.691 19.8C258.225 18.9333 261.091 18.5 264.291 18.5C268.691 18.5 272.658 19.3667 276.191 21.1C279.791 22.7667 282.625 25.4 284.691 29C286.825 32.5333 287.891 37.1333 287.891 42.8C287.891 48.2667 286.925 52.8333 284.991 56.5C283.125 60.1 280.491 62.8 277.091 64.6C273.691 66.4 269.791 67.3 265.391 67.3ZM249.991 84.7C248.591 84.7 247.525 84.4 246.791 83.8C246.058 83.2 245.691 82.2667 245.691 81V58.3L253.691 58.5V84C253.358 84.1333 252.858 84.2667 252.191 84.4C251.525 84.6 250.791 84.7 249.991 84.7ZM3.6 124.6H11.6V138.4C11.6 141.067 12.3667 142.967 13.9 144.1C15.4333 145.167 17.5333 145.7 20.2 145.7C21.3333 145.7 22.6 145.5 24 145.1C25.4 144.7 26.5667 144.233 27.5 143.7C27.9 144.1 28.2667 144.6 28.6 145.2C28.9333 145.8 29.1 146.5 29.1 147.3C29.1 148.767 28.2333 149.967 26.5 150.9C24.7667 151.833 22.3667 152.3 19.3 152.3C14.6333 152.3 10.8333 151.267 7.9 149.2C5.03333 147.133 3.6 143.7 3.6 138.9V124.6ZM7.7 112.4V105.8H28C28.2 106.067 28.4 106.5 28.6 107.1C28.8 107.7 28.9 108.333 28.9 109C28.9 110.067 28.6333 110.9 28.1 111.5C27.5667 112.1 26.8333 112.4 25.9 112.4H7.7ZM11.6 127.6H3.6V91.4C3.93333 91.2667 4.43333 91.1333 5.1 91C5.83333 90.8 6.6 90.7 7.4 90.7C8.8 90.7 9.83333 91 10.5 91.6C11.2333 92.1333 11.6 93.0333 11.6 94.3V127.6ZM33.1422 133L32.7422 126.7L62.9422 122.6C62.6755 118.933 61.4089 115.933 59.1422 113.6C56.8755 111.2 53.7422 110 49.7422 110C45.6089 110 42.1755 111.5 39.4422 114.5C36.7755 117.433 35.4422 121.667 35.4422 127.2V129.4C35.9089 134.733 37.6422 138.8 40.6422 141.6C43.7089 144.333 47.8755 145.7 53.1422 145.7C55.9422 145.7 58.4755 145.233 60.7422 144.3C63.0089 143.367 64.8089 142.367 66.1422 141.3C66.8755 141.767 67.4422 142.333 67.8422 143C68.3089 143.6 68.5422 144.3 68.5422 145.1C68.5422 146.367 67.8089 147.567 66.3422 148.7C64.9422 149.767 63.0422 150.633 60.6422 151.3C58.3089 151.967 55.6755 152.3 52.7422 152.3C47.6089 152.3 43.1422 151.367 39.3422 149.5C35.6089 147.633 32.7089 144.867 30.6422 141.2C28.6422 137.467 27.6422 132.933 27.6422 127.6C27.6422 123.8 28.1755 120.433 29.2422 117.5C30.3755 114.5 31.9089 111.967 33.8422 109.9C35.8422 107.833 38.2089 106.267 40.9422 105.2C43.6755 104.067 46.6422 103.5 49.8422 103.5C53.9089 103.5 57.4755 104.367 60.5422 106.1C63.6755 107.833 66.1089 110.267 67.8422 113.4C69.6422 116.467 70.5422 120 70.5422 124C70.5422 125.467 70.2089 126.533 69.5422 127.2C68.8755 127.8 67.9422 128.167 66.7422 128.3L33.1422 133ZM94.4977 110.2C89.9643 110.2 86.1977 111.733 83.1977 114.8C80.1977 117.867 78.6977 122.267 78.6977 128C78.6977 133.667 80.131 138.033 82.9977 141.1C85.931 144.167 89.7643 145.7 94.4977 145.7C97.2977 145.7 99.631 145.333 101.498 144.6C103.364 143.8 105.031 142.9 106.498 141.9C107.231 142.3 107.831 142.8 108.298 143.4C108.764 144 108.998 144.733 108.998 145.6C108.998 147.467 107.598 149.067 104.798 150.4C102.064 151.667 98.631 152.3 94.4977 152.3C89.8977 152.3 85.7643 151.433 82.0977 149.7C78.4977 147.9 75.6643 145.2 73.5977 141.6C71.531 138 70.4977 133.467 70.4977 128C70.4977 122.6 71.5643 118.1 73.6977 114.5C75.831 110.833 78.6977 108.1 82.2977 106.3C85.9643 104.433 89.9643 103.5 94.2977 103.5C98.431 103.5 101.831 104.2 104.498 105.6C107.231 107 108.598 108.6 108.598 110.4C108.598 111.2 108.364 111.9 107.898 112.5C107.431 113.1 106.831 113.567 106.098 113.9C104.631 112.9 102.998 112.033 101.198 111.3C99.4643 110.567 97.231 110.2 94.4977 110.2ZM151.952 131.1H143.952V121.9C143.952 117.9 142.818 114.933 140.552 113C138.352 111.067 135.485 110.1 131.952 110.1C129.352 110.1 126.918 110.6 124.652 111.6C122.452 112.6 120.585 113.8 119.052 115.2L117.552 108.7C119.152 107.567 121.252 106.433 123.852 105.3C126.518 104.1 129.585 103.5 133.052 103.5C138.585 103.5 143.118 105 146.652 108C150.185 111 151.952 115.567 151.952 121.7V131.1ZM112.052 124.6H120.052V150.8C119.718 150.933 119.218 151.067 118.552 151.2C117.885 151.4 117.152 151.5 116.352 151.5C114.952 151.5 113.885 151.233 113.152 150.7C112.418 150.1 112.052 149.167 112.052 147.9V124.6ZM143.952 124.7L151.952 124.8V150.8C151.618 150.933 151.085 151.067 150.352 151.2C149.685 151.4 148.985 151.5 148.252 151.5C146.785 151.5 145.685 151.233 144.952 150.7C144.285 150.1 143.952 149.167 143.952 147.9V124.7ZM120.052 128.5H112.052V86.2C112.385 86.0667 112.885 85.9333 113.552 85.8C114.285 85.6 115.052 85.5 115.852 85.5C117.252 85.5 118.285 85.8 118.952 86.4C119.685 86.9333 120.052 87.8333 120.052 89.1V128.5ZM178.53 103.5C182.663 103.5 186.363 104.4 189.63 106.2C192.963 107.933 195.563 110.6 197.43 114.2C199.363 117.8 200.33 122.367 200.33 127.9C200.33 133.5 199.33 138.1 197.33 141.7C195.396 145.3 192.696 147.967 189.23 149.7C185.763 151.433 181.73 152.3 177.13 152.3C173.863 152.3 170.896 151.9 168.23 151.1C165.63 150.3 163.496 149.433 161.83 148.5C160.43 147.567 159.463 146.7 158.93 145.9C158.396 145.1 158.13 144 158.13 142.6V109.3H166.13V142.6C167.13 143.333 168.596 144.033 170.53 144.7C172.463 145.367 174.663 145.7 177.13 145.7C181.663 145.7 185.296 144.267 188.03 141.4C190.83 138.533 192.23 134.033 192.23 127.9C192.23 121.7 190.83 117.2 188.03 114.4C185.23 111.533 181.663 110.1 177.33 110.1C174.663 110.1 172.296 110.633 170.23 111.7C168.163 112.7 166.463 113.867 165.13 115.2L163.63 108.7C165.096 107.567 167.063 106.433 169.53 105.3C171.996 104.1 174.996 103.5 178.53 103.5ZM166.13 110.9H158.13V86.2C158.463 86.0667 158.963 85.9333 159.63 85.8C160.363 85.6 161.13 85.5 161.93 85.5C163.33 85.5 164.363 85.8 165.03 86.4C165.763 86.9333 166.13 87.8333 166.13 89.1V110.9ZM204.613 124.6L212.613 125.8V150.8C212.279 150.933 211.779 151.067 211.113 151.2C210.446 151.4 209.713 151.5 208.913 151.5C207.513 151.5 206.446 151.233 205.713 150.7C204.979 150.1 204.613 149.167 204.613 147.9V124.6ZM212.613 129.6L204.613 128.5V86.2C204.946 86.0667 205.446 85.9333 206.113 85.8C206.846 85.6 207.579 85.5 208.313 85.5C209.779 85.5 210.846 85.8 211.513 86.4C212.246 86.9333 212.613 87.8333 212.613 89.1V129.6ZM262.322 127.9C262.322 132.833 261.389 137.133 259.522 140.8C257.655 144.467 255.022 147.3 251.622 149.3C248.222 151.3 244.222 152.3 239.622 152.3C235.022 152.3 230.989 151.3 227.522 149.3C224.122 147.3 221.489 144.467 219.622 140.8C217.755 137.133 216.822 132.833 216.822 127.9C216.822 122.9 217.755 118.6 219.622 115C221.555 111.333 224.222 108.5 227.622 106.5C231.089 104.5 235.089 103.5 239.622 103.5C244.155 103.5 248.122 104.5 251.522 106.5C254.922 108.5 257.555 111.333 259.422 115C261.355 118.6 262.322 122.9 262.322 127.9ZM239.622 110.1C235.155 110.1 231.589 111.7 228.922 114.9C226.322 118.033 225.022 122.367 225.022 127.9C225.022 133.5 226.289 137.867 228.822 141C231.422 144.133 235.022 145.7 239.622 145.7C244.155 145.7 247.689 144.133 250.222 141C252.822 137.8 254.122 133.433 254.122 127.9C254.122 122.367 252.822 118.033 250.222 114.9C247.689 111.7 244.155 110.1 239.622 110.1ZM284.895 149.6C281.029 149.6 277.462 148.867 274.195 147.4C270.929 145.867 268.295 143.4 266.295 140C264.295 136.6 263.295 132.1 263.295 126.5C263.295 121.433 264.262 117.2 266.195 113.8C268.195 110.4 270.929 107.833 274.395 106.1C277.862 104.367 281.829 103.5 286.295 103.5C289.362 103.5 292.162 103.9 294.695 104.7C297.295 105.433 299.462 106.367 301.195 107.5C302.195 108.167 302.995 108.933 303.595 109.8C304.262 110.6 304.595 111.6 304.595 112.8V143.7H296.595V112.9C295.462 112.167 294.029 111.533 292.295 111C290.629 110.4 288.629 110.1 286.295 110.1C281.829 110.1 278.229 111.467 275.495 114.2C272.762 116.933 271.395 121 271.395 126.4C271.395 132.4 272.762 136.667 275.495 139.2C278.295 141.733 281.729 143 285.795 143C288.729 143 291.095 142.5 292.895 141.5C294.695 140.5 296.129 139.4 297.195 138.2L297.595 145.3C296.595 146.367 294.995 147.367 292.795 148.3C290.662 149.167 288.029 149.6 284.895 149.6ZM296.595 152.5V142H304.595V153C304.595 157.4 303.629 160.933 301.695 163.6C299.829 166.267 297.229 168.2 293.895 169.4C290.629 170.6 286.929 171.2 282.795 171.2C279.462 171.2 276.595 170.833 274.195 170.1C271.795 169.367 270.162 168.767 269.295 168.3C267.295 167.167 266.295 165.733 266.295 164C266.295 163.067 266.495 162.267 266.895 161.6C267.362 161 267.929 160.533 268.595 160.2C269.995 161.267 271.962 162.233 274.495 163.1C277.095 164.033 279.862 164.5 282.795 164.5C287.262 164.5 290.662 163.533 292.995 161.6C295.395 159.667 296.595 156.633 296.595 152.5Z" fill="black"/>
</svg>
