<svg width="33" height="33" viewBox="0 0 33 33" fill="none" xmlns="http://www.w3.org/2000/svg">
<path d="M33 5C33 2.23858 30.7614 0 28 0H5C2.23858 0 0 2.23858 0 5V28C0 30.7614 2.23858 33 5 33H28C30.7614 33 33 30.7614 33 28V5Z" fill="#2563EB"/>
<path d="M15.5358 10.9365C15.5358 10.5463 15.8521 10.23 16.2423 10.23H18.4564C18.8466 10.23 19.1629 10.5463 19.1629 10.9365V14.4144C19.1629 15.0438 19.9239 15.359 20.369 14.914L23.0693 12.2137C23.3452 11.9378 23.7925 11.9378 24.0684 12.2137L25.6853 13.8306C25.9612 14.1065 25.9612 14.5538 25.6853 14.8297L22.6477 17.8674C22.2026 18.3124 22.5178 19.0734 23.1473 19.0734H26.6177C27.0079 19.0734 27.3242 19.3897 27.3242 19.7799V22.0672C27.3242 22.4574 27.0079 22.7737 26.6177 22.7737H19.621C19.2308 22.7737 18.9145 22.4574 18.9145 22.0672V20.7218C18.9145 20.5344 18.8401 20.3547 18.7076 20.2222L18.4435 19.9581C18.311 19.8256 18.1313 19.7512 17.9439 19.7512H16.2567C15.8665 19.7512 15.5502 20.0675 15.5502 20.4577V22.0672C15.5502 22.4574 15.2339 22.7737 14.8437 22.7737H10.5382C10.148 22.7737 9.83167 22.4574 9.83167 22.0672V20.534C9.83167 20.1438 9.51536 19.8275 9.12517 19.8275H7.1745C6.78431 19.8275 6.468 19.5112 6.468 19.121V11.034C6.468 10.6438 6.78431 10.3275 7.1745 10.3275H9.46116C9.85135 10.3275 10.1677 10.6438 10.1677 11.034V18.3669C10.1677 18.7571 10.484 19.0734 10.8742 19.0734H14.8293C15.2195 19.0734 15.5358 18.7571 15.5358 18.3669V10.9365Z" fill="white"/>
</svg>
